<mxfile host="65bd71144e" modified="2020-11-05T13:14:21.861Z" agent="5.0 (Macintosh; Intel Mac OS X 10_15_7) AppleWebKit/537.36 (KHTML, like Gecko) Code/1.47.3 Chrome/78.0.3904.130 Electron/7.3.2 Safari/537.36" etag="c8-Vz7CjtUpF8sCvtzKh" version="13.6.5">
    <diagram id="6hGFLwfOUW9BJ-s0fimq" name="Page-1">
        <mxGraphModel dx="1736" dy="800" grid="1" gridSize="10" guides="1" tooltips="1" connect="1" arrows="1" fold="1" page="0" pageScale="1" pageWidth="827" pageHeight="1169" background="none" math="0" shadow="0">
            <root>
                <mxCell id="0"/>
                <mxCell id="1" parent="0"/>
                <mxCell id="9" value="" style="rounded=1;arcSize=10;dashed=0;fillColor=none;gradientColor=none;strokeWidth=2;" parent="1" vertex="1">
                    <mxGeometry x="330" y="270" width="1000" height="1050" as="geometry"/>
                </mxCell>
                <mxCell id="10" value="" style="dashed=0;html=1;shape=mxgraph.aws3.virtual_private_cloud;fillColor=#F58536;gradientColor=none;dashed=0;" parent="1" vertex="1">
                    <mxGeometry x="390" y="200" width="110" height="70" as="geometry"/>
                </mxCell>
                <mxCell id="20" style="edgeStyle=orthogonalEdgeStyle;rounded=0;orthogonalLoop=1;jettySize=auto;html=1;exitX=0.5;exitY=1;exitDx=0;exitDy=0;fontSize=25;" parent="1" source="9" target="9" edge="1">
                    <mxGeometry relative="1" as="geometry"/>
                </mxCell>
                <mxCell id="22" value="VPC&lt;br&gt;10.10.0.0/16" style="text;html=1;strokeColor=none;fillColor=none;align=center;verticalAlign=middle;whiteSpace=wrap;rounded=0;strokeWidth=1;fontSize=25;" parent="1" vertex="1">
                    <mxGeometry x="1019" y="300" width="160" height="27" as="geometry"/>
                </mxCell>
                <mxCell id="23" value="" style="outlineConnect=0;dashed=0;verticalLabelPosition=bottom;verticalAlign=top;align=center;html=1;shape=mxgraph.aws3.internet_2;fillColor=#D2D3D3;gradientColor=none;strokeWidth=1;fontSize=25;" parent="1" vertex="1">
                    <mxGeometry x="790" y="40" width="79.5" height="54" as="geometry"/>
                </mxCell>
                <mxCell id="24" value="" style="outlineConnect=0;dashed=0;verticalLabelPosition=bottom;verticalAlign=top;align=center;html=1;shape=mxgraph.aws3.internet_gateway;fillColor=#F58534;gradientColor=none;strokeWidth=1;fontSize=25;" parent="1" vertex="1">
                    <mxGeometry x="795.25" y="228" width="69" height="72" as="geometry"/>
                </mxCell>
                <mxCell id="26" value="Internet Gateway" style="text;html=1;strokeColor=none;fillColor=none;align=center;verticalAlign=middle;whiteSpace=wrap;rounded=0;strokeWidth=1;fontSize=25;" parent="1" vertex="1">
                    <mxGeometry x="840" y="221.5" width="160" height="27" as="geometry"/>
                </mxCell>
                <mxCell id="27" value="Internet" style="text;html=1;strokeColor=none;fillColor=none;align=center;verticalAlign=middle;whiteSpace=wrap;rounded=0;strokeWidth=1;fontSize=25;" parent="1" vertex="1">
                    <mxGeometry x="859" y="70" width="160" height="27" as="geometry"/>
                </mxCell>
                <mxCell id="36" value="" style="edgeStyle=orthogonalEdgeStyle;html=1;endArrow=block;elbow=vertical;startArrow=block;startFill=1;endFill=1;strokeColor=#B20000;rounded=0;fontSize=25;strokeWidth=4;fillColor=#e51400;entryX=0.5;entryY=0;entryDx=0;entryDy=0;entryPerimeter=0;exitX=0.5;exitY=1;exitDx=0;exitDy=0;exitPerimeter=0;" parent="1" source="23" target="24" edge="1">
                    <mxGeometry width="100" relative="1" as="geometry">
                        <mxPoint x="750.0049999999999" y="209.99999999999994" as="sourcePoint"/>
                        <mxPoint x="443.75" y="523.19" as="targetPoint"/>
                        <Array as="points">
                            <mxPoint x="830" y="190"/>
                            <mxPoint x="830" y="228"/>
                        </Array>
                    </mxGeometry>
                </mxCell>
                <mxCell id="48" value="" style="group" parent="1" vertex="1" connectable="0">
                    <mxGeometry x="530.5" y="360" width="640" height="410" as="geometry"/>
                </mxCell>
                <mxCell id="5" value="" style="rounded=1;arcSize=10;dashed=0;fillColor=none;gradientColor=none;strokeWidth=2;" parent="48" vertex="1">
                    <mxGeometry x="10" y="20" width="630" height="390" as="geometry"/>
                </mxCell>
                <mxCell id="6" value="" style="dashed=0;html=1;shape=mxgraph.aws3.permissions;fillColor=#D9A741;gradientColor=none;dashed=0;" parent="48" vertex="1">
                    <mxGeometry x="50" width="30" height="35" as="geometry"/>
                </mxCell>
                <mxCell id="14" value="" style="outlineConnect=0;dashed=0;verticalLabelPosition=bottom;verticalAlign=top;align=center;html=1;shape=mxgraph.aws3.ec2;fillColor=#F58534;gradientColor=none;" parent="48" vertex="1">
                    <mxGeometry x="391.25" y="173.75" width="117.5" height="150" as="geometry"/>
                </mxCell>
                <mxCell id="15" value="Public Subnet&lt;br&gt;10.10.10.0/24" style="text;html=1;strokeColor=none;fillColor=none;align=center;verticalAlign=middle;whiteSpace=wrap;rounded=0;strokeWidth=1;fontSize=25;" parent="48" vertex="1">
                    <mxGeometry x="430" y="60" width="160" height="27" as="geometry"/>
                </mxCell>
                <mxCell id="18" value="&lt;font style=&quot;font-size: 20px&quot;&gt;flask server&lt;br&gt;10.10.10.20&lt;br&gt;&lt;/font&gt;" style="text;html=1;strokeColor=none;fillColor=none;align=center;verticalAlign=middle;whiteSpace=wrap;rounded=0;strokeWidth=1;fontSize=35;" parent="48" vertex="1">
                    <mxGeometry x="391.25" y="330" width="280" height="27" as="geometry"/>
                </mxCell>
                <mxCell id="44" value="" style="outlineConnect=0;dashed=0;verticalLabelPosition=bottom;verticalAlign=top;align=center;html=1;shape=mxgraph.aws3.ec2;fillColor=#F58534;gradientColor=none;" parent="48" vertex="1">
                    <mxGeometry x="60" y="180.25" width="117.5" height="137" as="geometry"/>
                </mxCell>
                <mxCell id="45" value="&lt;font style=&quot;font-size: 20px ; line-height: 100%&quot;&gt;cron server&lt;br&gt;10.10.10.10&lt;br&gt;&lt;/font&gt;" style="text;html=1;strokeColor=none;fillColor=none;align=center;verticalAlign=middle;whiteSpace=wrap;rounded=0;strokeWidth=1;fontSize=35;" parent="48" vertex="1">
                    <mxGeometry x="-19.75" y="330" width="260" height="40" as="geometry"/>
                </mxCell>
                <mxCell id="64" value="" style="endArrow=classic;html=1;strokeWidth=6;fontSize=35;fillColor=#e51400;strokeColor=#B20000;entryX=1;entryY=0.79;entryDx=0;entryDy=0;entryPerimeter=0;" parent="48" source="14" edge="1" target="76">
                    <mxGeometry width="50" height="50" relative="1" as="geometry">
                        <mxPoint x="219.49500000000012" y="276.5000000000002" as="sourcePoint"/>
                        <mxPoint x="299.5" y="-50" as="targetPoint"/>
                    </mxGeometry>
                </mxCell>
                <mxCell id="76" value="" style="outlineConnect=0;dashed=0;verticalLabelPosition=bottom;verticalAlign=top;align=center;html=1;shape=mxgraph.aws3.ec2;fillColor=#F58534;gradientColor=none;" vertex="1" parent="48">
                    <mxGeometry x="229.5" y="36.75" width="117.5" height="137" as="geometry"/>
                </mxCell>
                <mxCell id="77" value="&lt;font style=&quot;font-size: 20px ; line-height: 100%&quot;&gt;login server&lt;br&gt;10.10.10.100&lt;br&gt;&lt;/font&gt;" style="text;html=1;strokeColor=none;fillColor=none;align=center;verticalAlign=middle;whiteSpace=wrap;rounded=0;strokeWidth=1;fontSize=35;" vertex="1" parent="48">
                    <mxGeometry x="158.25" y="180.25" width="260" height="40" as="geometry"/>
                </mxCell>
                <mxCell id="65" value="" style="endArrow=classic;html=1;strokeWidth=6;fontSize=35;fillColor=#e51400;strokeColor=#B20000;exitX=0;exitY=0.79;exitDx=0;exitDy=0;exitPerimeter=0;" parent="48" source="76" target="44" edge="1">
                    <mxGeometry width="50" height="50" relative="1" as="geometry">
                        <mxPoint x="129.50499999999988" y="-48.60000000000008" as="sourcePoint"/>
                        <mxPoint x="255.76" y="195.59000000000026" as="targetPoint"/>
                    </mxGeometry>
                </mxCell>
                <mxCell id="66" value="" style="endArrow=classic;html=1;strokeWidth=6;fontSize=35;fillColor=#e51400;strokeColor=#B20000;exitX=0.5;exitY=0;exitDx=0;exitDy=0;exitPerimeter=0;entryX=0;entryY=0.5;entryDx=0;entryDy=0;entryPerimeter=0;" parent="48" source="44" edge="1" target="76">
                    <mxGeometry width="50" height="50" relative="1" as="geometry">
                        <mxPoint x="421.98292609737246" y="183.75000000000023" as="sourcePoint"/>
                        <mxPoint x="249.5" y="-70" as="targetPoint"/>
                        <Array as="points"/>
                    </mxGeometry>
                </mxCell>
                <mxCell id="63" value="" style="endArrow=classic;html=1;strokeWidth=6;fontSize=35;fillColor=#e51400;strokeColor=#B20000;" parent="48" source="76" edge="1">
                    <mxGeometry width="50" height="50" relative="1" as="geometry">
                        <mxPoint x="309.5" y="-50" as="sourcePoint"/>
                        <mxPoint x="439.5" y="170" as="targetPoint"/>
                    </mxGeometry>
                </mxCell>
                <mxCell id="49" value="" style="group" parent="1" vertex="1" connectable="0">
                    <mxGeometry x="540" y="840" width="621" height="400" as="geometry"/>
                </mxCell>
                <mxCell id="11" value="" style="rounded=1;arcSize=10;dashed=0;fillColor=none;gradientColor=none;strokeWidth=2;" parent="49" vertex="1">
                    <mxGeometry y="20" width="621" height="380" as="geometry"/>
                </mxCell>
                <mxCell id="12" value="" style="dashed=0;html=1;shape=mxgraph.aws3.permissions;fillColor=#D9A741;gradientColor=none;dashed=0;" parent="49" vertex="1">
                    <mxGeometry x="50" width="30" height="35" as="geometry"/>
                </mxCell>
                <mxCell id="13" value="" style="outlineConnect=0;dashed=0;verticalLabelPosition=bottom;verticalAlign=top;align=center;html=1;shape=mxgraph.aws3.ec2;fillColor=#F58534;gradientColor=none;" parent="49" vertex="1">
                    <mxGeometry x="260" y="180.25" width="117.5" height="137" as="geometry"/>
                </mxCell>
                <mxCell id="16" value="Private Subnet&lt;br&gt;10.10.20.0/24" style="text;html=1;strokeColor=none;fillColor=none;align=center;verticalAlign=middle;whiteSpace=wrap;rounded=0;strokeWidth=1;fontSize=25;" parent="49" vertex="1">
                    <mxGeometry x="440" y="340" width="169" height="27" as="geometry"/>
                </mxCell>
                <mxCell id="17" value="&lt;font style=&quot;font-size: 20px&quot;&gt;DB server&lt;br&gt;10.10.20.100&lt;br&gt;&lt;/font&gt;" style="text;html=1;strokeColor=none;fillColor=none;align=center;verticalAlign=middle;whiteSpace=wrap;rounded=0;strokeWidth=1;fontSize=25;" parent="49" vertex="1">
                    <mxGeometry x="170.5" y="330" width="280" height="27" as="geometry"/>
                </mxCell>
                <mxCell id="54" value="" style="endArrow=classic;html=1;strokeWidth=4;fontSize=35;exitX=1;exitY=0.79;exitDx=0;exitDy=0;exitPerimeter=0;dashed=1;fillColor=#0050ef;strokeColor=#001DBC;" parent="1" source="44" target="13" edge="1">
                    <mxGeometry width="50" height="50" relative="1" as="geometry">
                        <mxPoint x="930" y="550" as="sourcePoint"/>
                        <mxPoint x="980" y="500" as="targetPoint"/>
                    </mxGeometry>
                </mxCell>
                <mxCell id="55" value="&lt;font style=&quot;font-size: 20px&quot;&gt;データベース接続&lt;/font&gt;" style="text;html=1;strokeColor=none;fillColor=none;align=center;verticalAlign=middle;whiteSpace=wrap;rounded=0;strokeWidth=1;fontSize=35;" parent="1" vertex="1">
                    <mxGeometry x="550" y="800" width="260" height="27" as="geometry"/>
                </mxCell>
                <mxCell id="57" value="" style="endArrow=classic;html=1;strokeWidth=6;fontSize=35;fillColor=#e51400;strokeColor=#B20000;exitX=0.766;exitY=0;exitDx=0;exitDy=0;exitPerimeter=0;" parent="1" source="13" target="14" edge="1">
                    <mxGeometry width="50" height="50" relative="1" as="geometry">
                        <mxPoint x="930" y="740" as="sourcePoint"/>
                        <mxPoint x="980" y="690" as="targetPoint"/>
                    </mxGeometry>
                </mxCell>
                <mxCell id="59" value="" style="endArrow=classic;html=1;strokeWidth=6;fontSize=35;fillColor=#e51400;strokeColor=#B20000;exitX=0;exitY=0.79;exitDx=0;exitDy=0;exitPerimeter=0;" parent="1" source="14" target="13" edge="1">
                    <mxGeometry width="50" height="50" relative="1" as="geometry">
                        <mxPoint x="850" y="1005.27" as="sourcePoint"/>
                        <mxPoint x="902.2679492129828" y="640.0000000000002" as="targetPoint"/>
                    </mxGeometry>
                </mxCell>
                <mxCell id="61" value="&lt;font style=&quot;font-size: 20px&quot;&gt;apply&lt;/font&gt;" style="text;html=1;strokeColor=none;fillColor=none;align=center;verticalAlign=middle;whiteSpace=wrap;rounded=0;strokeWidth=1;fontSize=35;" parent="1" vertex="1">
                    <mxGeometry x="920" y="800" width="110" height="27" as="geometry"/>
                </mxCell>
                <mxCell id="62" value="&lt;font style=&quot;font-size: 20px&quot;&gt;request&lt;/font&gt;" style="text;html=1;strokeColor=none;fillColor=none;align=center;verticalAlign=middle;whiteSpace=wrap;rounded=0;strokeWidth=1;fontSize=35;" parent="1" vertex="1">
                    <mxGeometry x="795.5" y="781.5" width="110" height="27" as="geometry"/>
                </mxCell>
                <mxCell id="78" value="" style="endArrow=classic;html=1;strokeWidth=6;fontSize=35;fillColor=#e51400;strokeColor=#B20000;exitX=0.855;exitY=0.855;exitDx=0;exitDy=0;exitPerimeter=0;entryX=0.817;entryY=0.111;entryDx=0;entryDy=0;entryPerimeter=0;" edge="1" parent="1" source="24" target="76">
                    <mxGeometry width="50" height="50" relative="1" as="geometry">
                        <mxPoint x="770" y="339.73" as="sourcePoint"/>
                        <mxPoint x="718" y="388.4527088036118" as="targetPoint"/>
                    </mxGeometry>
                </mxCell>
                <mxCell id="79" value="" style="endArrow=classic;html=1;strokeWidth=6;fontSize=35;fillColor=#e51400;strokeColor=#B20000;entryX=0.145;entryY=0.855;entryDx=0;entryDy=0;entryPerimeter=0;exitX=0.289;exitY=0.068;exitDx=0;exitDy=0;exitPerimeter=0;" edge="1" parent="1" source="76" target="24">
                    <mxGeometry width="50" height="50" relative="1" as="geometry">
                        <mxPoint x="659.25" y="375" as="sourcePoint"/>
                        <mxPoint x="770" y="300" as="targetPoint"/>
                        <Array as="points"/>
                    </mxGeometry>
                </mxCell>
            </root>
        </mxGraphModel>
    </diagram>
</mxfile>